<svg width="30" height="27" viewBox="0 0 30 27" fill="none" xmlns="http://www.w3.org/2000/svg">
<path d="M23.7576 7.05528C26.801 4.62059 30.103 1.10551 29.5704 0.451187C29.0378 -0.203136 24.8836 2.23155 21.8403 4.68146C21.5664 4.90971 21.2925 5.12275 21.0338 5.33578C20.5012 5.24448 19.3904 5.06188 17.9752 4.83363C17.9904 4.83363 18.0208 4.83363 18.0361 4.83363L18.8578 4.17931C18.9643 4.10322 18.9643 3.93584 18.8578 3.82932L18.2187 3.03804C18.1274 2.91631 17.9752 2.88588 17.8687 2.97718L17.047 3.6315C17.047 3.6315 16.9861 3.7228 16.9709 3.78367L16.0122 4.54451C14.8101 4.34669 13.5015 4.13365 12.208 3.92062L13.0145 3.28151C13.121 3.20543 13.121 3.03804 13.0145 2.93153L12.3754 2.14025C12.2841 2.01852 12.1319 1.98809 12.0254 2.07939L11.2037 2.73371C11.2037 2.73371 11.1429 2.82501 11.1276 2.88588L10.1994 3.61628C6.91258 3.0837 4.15833 2.65762 4.06703 2.68806C3.83878 2.76414 2.66708 3.76845 2.66708 3.76845C2.37796 3.9967 2.18015 4.20974 2.19537 4.24017C2.2258 4.27061 2.56057 4.04235 2.83447 3.82932L8.87555 6.03576C8.66251 6.23357 8.54077 6.41618 8.58642 6.47705C8.64729 6.55313 8.9212 6.41618 9.1951 6.18792L9.22553 6.15749L10.4124 6.59878C10.2146 6.78138 10.0929 6.96398 10.1385 7.02485C10.1994 7.10094 10.4733 6.96398 10.7472 6.73573L11.8276 7.11615L12.4819 7.58787C12.2385 7.80091 12.0711 8.01394 12.1167 8.07481C12.1776 8.15089 12.4515 8.01394 12.7254 7.78569H12.7406L14.034 8.6987C13.7906 8.91173 13.6232 9.12477 13.6841 9.18564C13.7449 9.26172 14.0188 9.12477 14.2927 8.89652L15.4796 9.74866C13.4558 11.4073 12.6645 12.0768 11.1581 13.2942C9.63639 14.5115 8.25166 15.7897 7.14083 16.931C5.34525 16.6571 1.79973 16.0636 1.79973 16.0636L0.886719 16.6723L4.73657 19.6548C4.52354 19.9439 4.35615 20.1722 4.26485 20.3548C3.67139 20.9026 3.32141 21.2678 3.36706 21.3287C3.41271 21.3895 3.83878 21.1461 4.47789 20.6896C4.67571 20.6287 4.94961 20.4917 5.29959 20.3243L7.3843 24.7829L8.19079 24.0373C8.19079 24.0373 8.40383 20.2026 8.52556 18.4527C9.83421 17.631 11.3255 16.6571 12.8776 15.5767C14.7645 14.0702 15.6166 13.4311 17.3665 12.0616L17.9295 13.4007C17.6404 13.6442 17.4578 13.8724 17.5187 13.9485C17.5644 14.0094 17.8078 13.9029 18.0817 13.705L18.7056 15.1811H18.6904C18.4013 15.4245 18.2187 15.668 18.2795 15.7289C18.3252 15.7897 18.5839 15.6832 18.8426 15.4854L19.1621 16.2158L19.3143 17.3571C19.0252 17.5853 18.8426 17.8288 18.9034 17.9049C18.9491 17.9657 19.1469 17.8897 19.3752 17.7223L19.5425 18.9853H19.5121C19.223 19.2287 19.0404 19.4722 19.1012 19.5483C19.1469 19.6092 19.3599 19.5179 19.5882 19.3505L20.4099 25.7263C20.1512 25.9546 19.8469 26.2285 19.8621 26.2589C19.8925 26.2893 20.136 26.1372 20.4251 25.9089C20.4251 25.9089 21.6729 24.9807 21.7794 24.7829C21.8251 24.7068 22.0077 21.9221 22.2207 18.6048L23.1489 17.8744C23.1489 17.8744 23.2707 17.8744 23.3163 17.844L24.138 17.1897C24.2445 17.1136 24.2445 16.9462 24.138 16.8397L23.4989 16.0484C23.4076 15.9267 23.2554 15.8963 23.1489 15.9876L22.3424 16.6267C22.4185 15.318 22.4946 14.0094 22.5707 12.7768L23.5293 12.016C23.5293 12.016 23.6511 12.016 23.6967 11.9855L24.5184 11.3312C24.625 11.2551 24.625 11.0877 24.5184 10.9812L23.8793 10.1899C23.788 10.0682 23.6359 10.0378 23.5293 10.1291L22.7076 10.7834C22.7076 10.7834 22.7076 10.8138 22.6772 10.8443C22.7685 9.42911 22.8294 8.31828 22.8598 7.77047C23.1185 7.55744 23.3924 7.3444 23.6815 7.11615L23.7576 7.05528Z" fill="white"/>
</svg>
