<svg width="143" height="47" viewBox="0 0 143 47" fill="none" xmlns="http://www.w3.org/2000/svg">
<g clip-path="url(#clip0_65_1249)">
<path fill-rule="evenodd" clip-rule="evenodd" d="M106.303 27.3079C106.303 36.0504 112.69 37.0854 115.86 37.0854C116.9 37.0854 117.546 36.9832 117.546 36.9832V32.534C117.546 32.534 117.099 32.6389 116.406 32.6389C114.572 32.6389 111.107 31.9668 111.107 26.7407V14.74H117.099V10.7048H111.107V4.08887L106.4 7.3283V10.7021H103.031V14.7373H106.303V27.3079Z" fill="#2959E0"/>
<path fill-rule="evenodd" clip-rule="evenodd" d="M89.5672 10.6404C83.3411 10.6404 81.263 15.0896 81.263 15.0896H81.1635C81.1635 15.0896 81.2146 14.4954 81.2146 13.7561C81.2146 12.1754 80.3758 11.2345 78.1499 11.2345H73.6523V15.3396H75.6793C76.3729 15.3396 76.7681 15.6864 76.7681 16.4283V47.0027H81.5614V35.0127C81.5614 33.7277 81.4619 32.8379 81.4619 32.8379H81.5614C81.5614 32.8379 83.6879 36.8408 89.2231 36.8408C95.7477 36.8408 100.592 31.7007 100.592 23.7433C100.592 15.7858 96.2907 10.6431 89.5672 10.6431V10.6404ZM88.4785 32.7357C83.833 32.7357 81.4108 28.2866 81.4108 23.8374C81.4108 17.4607 84.9218 14.8422 88.629 14.8422C92.7825 14.8422 95.6966 18.3505 95.6966 23.789C95.6966 29.2275 92.433 32.7357 88.4785 32.7357Z" fill="#2959E0"/>
<path d="M122.868 36.8246C123.341 36.9644 123.8 37.0693 124.247 37.1392C124.693 37.2091 125.069 37.244 125.376 37.244C125.739 37.244 126.072 37.1741 126.379 37.0343C126.685 36.8945 126.965 36.6499 127.215 36.3031C127.465 35.9536 127.717 35.4751 127.967 34.8622C128.217 34.2492 128.484 33.4831 128.76 32.5637L120.109 10.6646H125.876L131.809 27.7139L137.075 10.6646H142.342L133.148 36.908C132.618 38.4403 131.712 39.6931 130.433 40.669C129.15 41.6448 127.561 42.1314 125.669 42.1314C125.223 42.1314 124.771 42.0965 124.311 42.0266C123.852 41.9567 123.37 41.8384 122.87 41.6717V36.8246H122.868Z" fill="#2959E0"/>
<path d="M0 36.7655V7.04877H10.5463C12.9443 7.04877 15.0466 7.43857 16.8451 8.22088C18.6435 9.00318 20.1517 10.0624 21.3641 11.4012C22.5766 12.74 23.4906 14.3099 24.1062 16.1084C24.7192 17.9069 25.0256 19.8264 25.0256 21.8641C25.0256 24.125 24.6842 26.1681 24.0014 27.9962C23.3185 29.8243 22.3481 31.3862 21.0926 32.6846C19.8372 33.9831 18.3156 34.9858 16.5305 35.6983C14.7455 36.4107 12.7507 36.7655 10.5463 36.7655H0ZM20.2565 21.8641C20.2565 20.3022 20.0388 18.864 19.6087 17.5521C19.1758 16.2402 18.5414 15.1191 17.7053 14.1836C16.8692 13.248 15.8504 12.5168 14.6514 11.9872C13.4524 11.4576 12.084 11.1915 10.549 11.1915H4.68844V32.6201H10.549C12.1109 32.6201 13.5008 32.3486 14.7132 31.8029C15.9256 31.2598 16.9445 30.5044 17.7671 29.542C18.5898 28.5796 19.2108 27.4424 19.6302 26.1305C20.0495 24.8186 20.2592 23.3965 20.2592 21.8614L20.2565 21.8641Z" fill="#2959E0"/>
<path d="M44.9307 15.689C42.8015 15.7562 40.9143 16.2455 39.2664 17.1622C37.6184 18.0789 36.4463 19.3828 35.7474 21.0791V37.0477H30.2578V10.9495H35.3495V16.7885C36.2474 14.9927 37.4195 13.5545 38.8685 12.4711C40.3148 11.3904 41.8714 10.7989 43.5355 10.6995H44.3581C44.5731 10.6995 44.764 10.7156 44.9307 10.7505V15.6917V15.689Z" fill="#2959E0"/>
<path fill-rule="evenodd" clip-rule="evenodd" d="M71.125 9.18332L85.0559 0H73.4988C75.3968 3.2233 74.6064 6.28531 71.125 9.18332Z" fill="#FE9400"/>
<path fill-rule="evenodd" clip-rule="evenodd" d="M53.6021 27.9935C55.0161 29.4614 57.0055 30.3754 59.2046 30.3754C63.5032 30.3754 66.9899 26.8886 66.9899 22.59C66.9899 19.8829 65.6081 17.4983 63.5113 16.1031C63.2639 15.9391 62.9171 15.7617 62.6537 15.6084C63.7263 14.5465 64.8393 13.5142 65.9738 12.5168C69.2105 14.6971 71.3397 18.3935 71.3397 22.59C71.3397 29.292 65.9065 34.7224 59.2046 34.7224C57.2098 34.7224 55.328 34.2412 53.6693 33.389C53.43 33.2062 53.223 32.9992 53.0725 32.7653C52.4569 31.819 52.6988 30.3485 52.9784 29.3323C53.1128 28.8484 53.2876 28.3565 53.4865 27.8672C53.5483 27.9371 53.5779 27.9667 53.6021 27.9882" fill="#2959E0"/>
<path d="M63.3865 10.8853C60.9528 9.95434 58.1765 9.85715 55.5165 10.7049C53.0369 11.4951 50.781 13.0512 49.2711 15.239C47.7612 17.4268 46.9858 20.0684 47.064 22.7577C47.1422 25.4471 47.9101 27.3922 49.5443 29.4816L55.4213 19.3965L63.3865 10.8853Z" fill="#2959E0"/>
<path d="M73.4896 4.24392C69.9084 6.28086 65.673 10.1314 61.4754 14.0989C53.5184 22.0172 48.8165 30.5316 52.0323 33.9668C53.4114 35.0414 54.9107 35.5827 56.5053 35.6732C53.0705 36.9963 50.2226 37.0445 48.6952 35.5049C45.4457 32.2291 49.1754 23.0076 59.2411 14.0183C63.5246 9.75563 69.3568 5.92387 73.4896 4.24392Z" fill="#FE9400"/>
</g>
<defs>
<clipPath id="clip0_65_1249">
<rect width="142.341" height="47" fill="white"/>
</clipPath>
</defs>
</svg>
